# xmcd CD database file
#
# Track frame offsets:
#	150
#	14750
#	28783
#	42795
#	55663
#	68599
#	83350
#	96338
#	111812
#	125332
#	140780
#	154392
#	167222
#	181145
#	195581
#	208853
#	222734
#	235990
#	249614
#	263627
#
# Disc length: 3692 seconds
#
# Revision: 1
# Processed by: cddbd v1.5.2PL0 Copyright (c) Steve Scherf et al.
# Submitted via: CDex 1.70beta2
#
DISCID=230e6a14
DTITLE=Josh White - The Ultimate Jazz Archive Set 11
DYEAR=2005
DGENRE=Blues
TTITLE0=Black And Evil Blues
TTITLE1=Howling Wolf Blues
TTITLE2=Greenville Sheik
TTITLE3=Double Crossing Woman
TTITLE4=Lazy Black Snake Blues
TTITLE5=Downhearted Man Blues
TTITLE6=Low Cotton
TTITLE7=Lord, I Want To Die Easy
TTITLE8=My Father Is A Husbandman
TTITLE9=Welfare Blues
TTITLE10=Stormy Weather No. 1
TTITLE11=Friendly City Blues
TTITLE12=Milk Cow Blues
TTITLE13=Badly Mistreated Man
TTITLE14=New Milk Cow Blues
TTITLE15=Black Man
TTITLE16=Bed Springs Blues
TTITLE17=Paul And Silas Bound In Jail
TTITLE18=Did You Read That Letter?
TTITLE19=Silicosis Is Killin' Me
EXTD=YEAR: 2005
EXTT0=
EXTT1=
EXTT2=
EXTT3=
EXTT4=
EXTT5=
EXTT6=
EXTT7=
EXTT8=
EXTT9=
EXTT10=
EXTT11=
EXTT12=
EXTT13=
EXTT14=
EXTT15=
EXTT16=
EXTT17=
EXTT18=
EXTT19=
PLAYORDER=
